<?xml version="1.0" standalone="no"?>
<!DOCTYPE svg PUBLIC "-//W3C//DTD SVG 20010904//EN"
 "http://www.w3.org/TR/2001/REC-SVG-20010904/DTD/svg10.dtd">
<svg version="1.0" xmlns="http://www.w3.org/2000/svg"
 width="1200.000000pt" height="600.000000pt" viewBox="0 0 1200.000000 600.000000"
 preserveAspectRatio="xMidYMid meet">

<g transform="translate(0.000000,600.000000) scale(0.100000,-0.100000)"
fill="#000000" stroke="none">
<path d="M4940 4025 c0 -294 3 -535 6 -535 9 0 556 89 587 96 l27 6 -2 360 -3
360 -265 107 c-146 59 -284 115 -307 124 l-43 17 0 -535z"/>
<path d="M4544 3361 c-12 -12 -1 -43 19 -50 12 -4 102 -21 200 -37 l177 -28 0
-549 c0 -322 4 -547 9 -545 5 2 144 57 310 123 l301 120 0 373 c0 348 1 372
18 372 9 0 108 -15 220 -34 l202 -33 0 144 0 143 -726 2 c-399 2 -728 1 -730
-1z"/>
<path d="M4940 1665 l0 -235 60 0 60 0 0 90 0 90 110 0 110 0 0 -90 0 -90 60
0 60 0 0 235 0 235 -60 0 -59 0 -3 -92 -3 -93 -105 0 -105 0 -3 93 -3 92 -59
0 -60 0 0 -235z"/>
<path d="M5510 1665 l0 -235 60 0 59 0 3 117 3 116 99 -116 99 -117 69 0 c37
0 68 3 68 6 0 3 -43 55 -95 115 -57 66 -93 115 -88 122 4 7 46 58 95 114 48
56 88 104 88 107 0 3 -31 6 -68 6 l-69 0 -99 -117 -99 -116 -3 116 -3 117 -59
0 -60 0 0 -235z"/>
<path d="M6030 1665 l0 -235 60 0 59 0 3 147 3 147 106 -144 106 -145 61 -3
62 -3 0 236 0 235 -60 0 -59 0 -3 -146 -3 -145 -107 145 -108 146 -60 0 -60 0
0 -235z"/>
<path d="M6600 1724 c0 -196 7 -226 64 -267 28 -20 42 -22 168 -22 122 0 139
2 165 21 56 41 63 71 63 267 l0 177 -60 0 -60 0 0 -169 c0 -206 3 -201 -110
-201 -113 0 -110 -5 -110 201 l0 169 -60 0 -60 0 0 -176z"/>
</g>
</svg>
